<svg width="135" height="41" viewBox="0 0 135 41" fill="none" xmlns="http://www.w3.org/2000/svg">
<path d="M130 40.5H5C2.2 40.5 0 38.3 0 35.5V5.5C0 2.7 2.2 0.5 5 0.5H130C132.8 0.5 135 2.7 135 5.5V35.5C135 38.3 132.8 40.5 130 40.5Z" fill="black"/>
<path d="M130 1.3C132.3 1.3 134.2 3.2 134.2 5.5V35.5C134.2 37.8 132.3 39.7 130 39.7H5C2.7 39.7 0.8 37.8 0.8 35.5V5.5C0.8 3.2 2.7 1.3 5 1.3H130ZM130 0.5H5C2.2 0.5 0 2.8 0 5.5V35.5C0 38.3 2.2 40.5 5 40.5H130C132.8 40.5 135 38.3 135 35.5V5.5C135 2.8 132.8 0.5 130 0.5Z" fill="#A6A6A6"/>
<path d="M47.4 10.6999C47.4 11.4999 47.2 12.1999 46.7 12.6999C46.1 13.2999 45.4 13.5999 44.5 13.5999C43.6 13.5999 42.9 13.2999 42.3 12.6999C41.7 12.0999 41.4 11.3999 41.4 10.4999C41.4 9.5999 41.7 8.8999 42.3 8.2999C42.9 7.6999 43.6 7.3999 44.5 7.3999C44.9 7.3999 45.3 7.4999 45.7 7.6999C46.1 7.8999 46.4 8.0999 46.6 8.3999L46.1 8.8999C45.7 8.3999 45.2 8.1999 44.5 8.1999C43.9 8.1999 43.3 8.3999 42.9 8.8999C42.4 9.2999 42.2 9.8999 42.2 10.5999C42.2 11.2999 42.4 11.8999 42.9 12.2999C43.4 12.6999 43.9 12.9999 44.5 12.9999C45.2 12.9999 45.7 12.7999 46.2 12.2999C46.5 11.9999 46.7 11.5999 46.7 11.0999H44.5V10.2999H47.4V10.6999V10.6999ZM52 8.1999H49.3V10.0999H51.8V10.7999H49.3V12.6999H52V13.4999H48.5V7.4999H52V8.1999ZM55.3 13.4999H54.5V8.1999H52.8V7.4999H57V8.1999H55.3V13.4999ZM59.9 13.4999V7.4999H60.7V13.4999H59.9ZM64.1 13.4999H63.3V8.1999H61.6V7.4999H65.7V8.1999H64V13.4999H64.1ZM73.6 12.6999C73 13.2999 72.3 13.5999 71.4 13.5999C70.5 13.5999 69.8 13.2999 69.2 12.6999C68.6 12.0999 68.3 11.3999 68.3 10.4999C68.3 9.5999 68.6 8.8999 69.2 8.2999C69.8 7.6999 70.5 7.3999 71.4 7.3999C72.3 7.3999 73 7.6999 73.6 8.2999C74.2 8.8999 74.5 9.5999 74.5 10.4999C74.5 11.3999 74.2 12.0999 73.6 12.6999ZM69.8 12.1999C70.2 12.5999 70.8 12.8999 71.4 12.8999C72 12.8999 72.6 12.6999 73 12.1999C73.4 11.7999 73.7 11.1999 73.7 10.4999C73.7 9.7999 73.5 9.1999 73 8.7999C72.6 8.3999 72 8.0999 71.4 8.0999C70.8 8.0999 70.2 8.2999 69.8 8.7999C69.4 9.1999 69.1 9.7999 69.1 10.4999C69.1 11.1999 69.3 11.7999 69.8 12.1999ZM75.6 13.4999V7.4999H76.5L79.4 12.1999V7.4999H80.2V13.4999H79.4L76.3 8.5999V13.4999H75.6V13.4999Z" fill="white" stroke="white" stroke-width="0.2" stroke-miterlimit="10"/>
<path d="M68.1 22.3001C65.7 22.3001 63.8 24.1001 63.8 26.6001C63.8 29.0001 65.7 30.9001 68.1 30.9001C70.5 30.9001 72.4 29.1001 72.4 26.6001C72.4 24.0001 70.5 22.3001 68.1 22.3001ZM68.1 29.1001C66.8 29.1001 65.7 28.0001 65.7 26.5001C65.7 25.0001 66.8 23.9001 68.1 23.9001C69.4 23.9001 70.5 24.9001 70.5 26.5001C70.5 28.0001 69.4 29.1001 68.1 29.1001ZM58.8 22.3001C56.4 22.3001 54.5 24.1001 54.5 26.6001C54.5 29.0001 56.4 30.9001 58.8 30.9001C61.2 30.9001 63.1 29.1001 63.1 26.6001C63.1 24.0001 61.2 22.3001 58.8 22.3001ZM58.8 29.1001C57.5 29.1001 56.4 28.0001 56.4 26.5001C56.4 25.0001 57.5 23.9001 58.8 23.9001C60.1 23.9001 61.2 24.9001 61.2 26.5001C61.2 28.0001 60.1 29.1001 58.8 29.1001ZM47.7 23.6001V25.4001H52C51.9 26.4001 51.5 27.2001 51 27.7001C50.4 28.3001 49.4 29.0001 47.7 29.0001C45 29.0001 43 26.9001 43 24.2001C43 21.5001 45.1 19.4001 47.7 19.4001C49.1 19.4001 50.2 20.0001 51 20.7001L52.3 19.4001C51.2 18.4001 49.8 17.6001 47.8 17.6001C44.2 17.6001 41.1 20.6001 41.1 24.2001C41.1 27.8001 44.2 30.8001 47.8 30.8001C49.8 30.8001 51.2 30.2001 52.4 28.9001C53.6 27.7001 54 26.0001 54 24.7001C54 24.3001 54 23.9001 53.9 23.6001H47.7V23.6001ZM93.1 25.0001C92.7 24.0001 91.7 22.3001 89.5 22.3001C87.3 22.3001 85.5 24.0001 85.5 26.6001C85.5 29.0001 87.3 30.9001 89.7 30.9001C91.6 30.9001 92.8 29.7001 93.2 29.0001L91.8 28.0001C91.3 28.7001 90.7 29.2001 89.7 29.2001C88.7 29.2001 88.1 28.8001 87.6 27.9001L93.3 25.5001L93.1 25.0001V25.0001ZM87.3 26.4001C87.3 24.8001 88.6 23.9001 89.5 23.9001C90.2 23.9001 90.9 24.3001 91.1 24.8001L87.3 26.4001ZM82.6 30.5001H84.5V18.0001H82.6V30.5001ZM79.6 23.2001C79.1 22.7001 78.3 22.2001 77.3 22.2001C75.2 22.2001 73.2 24.1001 73.2 26.5001C73.2 28.9001 75.1 30.7001 77.3 30.7001C78.3 30.7001 79.1 30.2001 79.5 29.7001H79.6V30.3001C79.6 31.9001 78.7 32.8001 77.3 32.8001C76.2 32.8001 75.4 32.0001 75.2 31.3001L73.6 32.0001C74.1 33.1001 75.3 34.5001 77.4 34.5001C79.6 34.5001 81.4 33.2001 81.4 30.1001V22.5001H79.6V23.2001V23.2001ZM77.4 29.1001C76.1 29.1001 75 28.0001 75 26.5001C75 25.0001 76.1 23.9001 77.4 23.9001C78.7 23.9001 79.7 25.0001 79.7 26.5001C79.7 28.0001 78.7 29.1001 77.4 29.1001ZM101.8 18.0001H97.3V30.5001H99.2V25.8001H101.8C103.9 25.8001 105.9 24.3001 105.9 21.9001C105.9 19.5001 103.9 18.0001 101.8 18.0001V18.0001ZM101.9 24.0001H99.2V19.7001H101.9C103.3 19.7001 104.1 20.9001 104.1 21.8001C104 22.9001 103.2 24.0001 101.9 24.0001ZM113.4 22.2001C112 22.2001 110.6 22.8001 110.1 24.1001L111.8 24.8001C112.2 24.1001 112.8 23.9001 113.5 23.9001C114.5 23.9001 115.4 24.5001 115.5 25.5001V25.6001C115.2 25.4001 114.4 25.1001 113.6 25.1001C111.8 25.1001 110 26.1001 110 27.9001C110 29.6001 111.5 30.7001 113.1 30.7001C114.4 30.7001 115 30.1001 115.5 29.5001H115.6V30.5001H117.4V25.7001C117.2 23.5001 115.5 22.2001 113.4 22.2001V22.2001ZM113.2 29.1001C112.6 29.1001 111.7 28.8001 111.7 28.0001C111.7 27.0001 112.8 26.7001 113.7 26.7001C114.5 26.7001 114.9 26.9001 115.4 27.1001C115.2 28.3001 114.2 29.1001 113.2 29.1001V29.1001ZM123.7 22.5001L121.6 27.9001H121.5L119.3 22.5001H117.3L120.6 30.1001L118.7 34.3001H120.6L125.7 22.5001H123.7V22.5001ZM106.9 30.5001H108.8V18.0001H106.9V30.5001Z" fill="white"/>
<path d="M10.4 8C10.1 8.3 10 8.8 10 9.4V31.5C10 32.1 10.2 32.6 10.5 32.9L10.6 33L23 20.6V20.4L10.4 8Z" fill="url(#paint0_linear_46_38)"/>
<path d="M27 24.7998L22.9 20.6998V20.3998L27 16.2998L27.1 16.3998L32 19.1998C33.4 19.9998 33.4 21.2998 32 22.0998L27 24.7998V24.7998Z" fill="url(#paint1_linear_46_38)"/>
<path d="M27.1 24.7L22.9 20.5L10.4 33C10.9 33.5 11.6 33.5 12.5 33.1L27.1 24.7" fill="url(#paint2_linear_46_38)"/>
<path d="M27.1 16.2996L12.5 7.99962C11.6 7.49962 10.9 7.59962 10.4 8.09962L22.9 20.4996L27.1 16.2996V16.2996Z" fill="url(#paint3_linear_46_38)"/>
<path opacity="0.2" d="M27 24.5996L12.5 32.7996C11.7 33.2996 11 33.1996 10.5 32.7996L10.4 32.8996L10.5 32.9996C11 33.3996 11.7 33.4996 12.5 32.9996L27 24.5996Z" fill="black"/>
<path opacity="0.12" d="M10.4 32.8C10.1 32.5 10 32 10 31.4V31.5C10 32.1 10.2 32.6 10.5 32.9V32.8H10.4ZM32 21.8L27 24.6L27.1 24.7L32 21.9C32.7 21.5 33 21 33 20.5C33 21 32.6 21.4 32 21.8V21.8Z" fill="black"/>
<path opacity="0.25" d="M12.5 8.09978L32 19.1998C32.6 19.5998 33 19.9998 33 20.4998C33 19.9998 32.7 19.4998 32 19.0998L12.5 7.99978C11.1 7.19978 10 7.79978 10 9.39978V9.49978C10 7.99978 11.1 7.29978 12.5 8.09978Z" fill="white"/>
<defs>
<linearGradient id="paint0_linear_46_38" x1="21.8" y1="9.21" x2="5.017" y2="25.992" gradientUnits="userSpaceOnUse">
<stop stop-color="#00A0FF"/>
<stop offset="0.007" stop-color="#00A1FF"/>
<stop offset="0.26" stop-color="#00BEFF"/>
<stop offset="0.512" stop-color="#00D2FF"/>
<stop offset="0.76" stop-color="#00DFFF"/>
<stop offset="1" stop-color="#00E3FF"/>
</linearGradient>
<linearGradient id="paint1_linear_46_38" x1="33.834" y1="20.5008" x2="9.63702" y2="20.5008" gradientUnits="userSpaceOnUse">
<stop stop-color="#FFE000"/>
<stop offset="0.409" stop-color="#FFBD00"/>
<stop offset="0.775" stop-color="#FFA500"/>
<stop offset="1" stop-color="#FF9C00"/>
</linearGradient>
<linearGradient id="paint2_linear_46_38" x1="24.827" y1="22.796" x2="2.06903" y2="45.554" gradientUnits="userSpaceOnUse">
<stop stop-color="#FF3A44"/>
<stop offset="1" stop-color="#C31162"/>
</linearGradient>
<linearGradient id="paint3_linear_46_38" x1="7.29702" y1="0.675624" x2="17.46" y2="10.8386" gradientUnits="userSpaceOnUse">
<stop stop-color="#32A071"/>
<stop offset="0.069" stop-color="#2DA771"/>
<stop offset="0.476" stop-color="#15CF74"/>
<stop offset="0.801" stop-color="#06E775"/>
<stop offset="1" stop-color="#00F076"/>
</linearGradient>
</defs>
</svg>
