<svg width="200" height="206" viewBox="0 0 200 206" fill="none" xmlns="http://www.w3.org/2000/svg">
<path d="M23.9583 183H176.042V110H200V184C200 196.15 189.74 206 177.083 206H22.9167C10.2601 206 0 196.15 0 184V110H23.9583V183Z" fill="#1A3412"/>
<path d="M87.5756 1.33506C69.0756 5.33506 52.6756 20.1351 46.3756 38.5351C43.1756 48.1351 43.1756 61.5351 46.5756 71.7351C50.0756 82.4351 63.5756 108.735 74.0756 125.435C84.8756 142.635 98.6756 162.135 100.076 162.135C101.476 162.135 115.276 142.635 126.076 125.435C136.876 108.335 150.376 82.0351 153.676 71.7351C156.976 61.4351 156.976 48.0351 153.776 38.5351C144.376 11.0351 116.076 -4.86494 87.5756 1.33506ZM105.376 36.9351C111.876 38.5351 117.876 44.7351 119.476 51.5351C124.076 70.5351 101.676 84.4351 86.9756 71.5351C80.8756 66.1351 78.6756 59.1351 80.6756 51.1351C82.6756 43.2351 90.8756 36.5351 99.3756 35.8351C100.076 35.7351 102.776 36.2351 105.376 36.9351Z" fill="#1A3412"/>
</svg>
